<?xml version="1.0" encoding="UTF-8"?>
<svg id="Layer_1" xmlns="http://www.w3.org/2000/svg" version="1.1" viewBox="0 0 1080 1350">
  <!-- Generator: Adobe Illustrator 29.5.0, SVG Export Plug-In . SVG Version: 2.1.0 Build 137)  -->
  <defs>
    <style>
      .st0 {
        fill: #fff;
      }
    </style>
  </defs>
  <g>
    <path class="st0" d="M327.66,593.95c-6.68,0-12.12-5.44-12.12-12.12s5.44-12.12,12.12-12.12,12.12,5.44,12.12,12.12-5.44,12.12-12.12,12.12ZM327.66,574.18c-4.22,0-7.66,3.43-7.66,7.66s3.43,7.66,7.66,7.66,7.66-3.43,7.66-7.66-3.43-7.66-7.66-7.66Z"/>
    <g>
      <path class="st0" d="M299.48,590.05l-2.08-3.95c2.77-1.46,5.74-2.42,8.81-2.86,5.89-.84,10.86.45,14,1.68l-1.64,4.16c-2.63-1.03-6.8-2.12-11.73-1.41-2.56.37-5.04,1.17-7.36,2.39Z"/>
      <path class="st0" d="M308.31,580.58c-3.87,0-7.11-.85-9.37-1.69l1.56-4.19c2.58.96,6.67,1.92,11.54,1.09,2.4-.41,4.72-1.21,6.89-2.38l2.11,3.94c-2.6,1.4-5.38,2.35-8.25,2.84-1.57.27-3.07.38-4.48.38Z"/>
    </g>
    <g>
      <path class="st0" d="M336.45,590.05l-2.08-3.95c2.77-1.46,5.74-2.42,8.81-2.86,5.9-.84,10.86.45,14,1.68l-1.64,4.16c-2.63-1.03-6.8-2.12-11.73-1.41-2.56.37-5.04,1.17-7.36,2.39Z"/>
      <path class="st0" d="M345.24,580.55c-4.09,0-7.52-1.03-9.9-2.04l1.74-4.11c2.6,1.1,6.71,2.24,11.54,1.4,2.28-.4,4.48-1.19,6.52-2.37l2.22,3.88c-2.5,1.43-5.18,2.41-7.98,2.89-1.44.25-2.83.36-4.15.36Z"/>
    </g>
    <g>
      <path class="st0" d="M324.94,611.1l-4.16-1.64c1.03-2.63,2.12-6.8,1.42-11.73-.37-2.56-1.17-5.04-2.39-7.36l3.95-2.08c1.46,2.78,2.42,5.74,2.86,8.81.84,5.9-.45,10.87-1.68,14Z"/>
      <path class="st0" d="M332.56,611.29c-1.43-2.5-2.41-5.18-2.89-7.98-1.03-5.91.35-10.9,1.68-14.05l4.11,1.74c-1.1,2.6-2.24,6.71-1.4,11.54.4,2.28,1.19,4.48,2.37,6.52l-3.88,2.22Z"/>
    </g>
    <path class="st0" d="M327.54,613.29c-8.25,0-16.45-3.52-22.52-9.67-5.83-5.91-8.96-13.5-8.82-21.38.29-16.04,13.44-27.26,25.67-29.68,1.24-.24,12.37-2.2,21.83,4.15,1.39.93,8.23,5.76,6.13,9.05-1.25,1.96-3.44,1.1-5.75.2-2.69-1.05-6.74-2.64-12.05-2.91-2.6-.13-6.17-.31-9.83,1.62-2.42,1.28-4.52,3.29-6.06,5.82-.64,1.05-2.02,1.39-3.07.75-1.05-.64-1.39-2.02-.75-3.07,1.96-3.22,4.66-5.8,7.8-7.45,4.75-2.5,9.2-2.28,12.14-2.13,3.16.16,5.95.74,8.28,1.41-7.82-4.82-16.78-3.24-17.8-3.04-10.66,2.11-21.83,12.18-22.07,25.38-.12,6.66,2.55,13.11,7.53,18.16,5.23,5.31,12.28,8.34,19.34,8.34h.1c11.36-.05,21.91-7.86,25.07-18.58,2.29-7.77,0-14.75-1.56-18.22-.51-1.12,0-2.45,1.12-2.96,1.12-.51,2.45,0,2.96,1.12,1.82,4.04,4.47,12.17,1.77,21.33-3.71,12.56-16.05,21.72-29.34,21.78h-.12Z"/>
  </g>
  <g>
    <path class="st0" d="M371.87,582.36c0,13.88-5.5,24.81-16.5,32.8-.79.52-1.57.79-2.36.79-2.62,0-3.93-1.31-3.93-3.93,0-1.18.52-2.22,1.57-3.14,8.77-7.98,13.16-16.89,13.16-26.71s-3.47-18.33-10.41-25.14c-6.94-6.81-15.45-10.21-25.53-10.21s-18.14,3.41-25.34,10.21c-7.2,6.81-10.8,15.06-10.8,24.75,0,11,4.52,19.97,13.55,26.91,8.25,5.11,16.5,10.21,24.75,15.32,8.9,6.28,13.35,14.14,13.35,23.57,0,7.2-2.68,12.83-8.05,16.89-4.85,3.67-11,5.5-18.46,5.5-2.62,0-3.93-1.31-3.93-3.93s1.31-3.93,3.93-3.93c5.24,0,9.49-1.18,12.77-3.54,3.8-2.75,5.7-6.61,5.7-11.59,0-2.22-.39-4.52-1.18-6.87-1.44-4.45-6.68-9.16-15.71-14.14-11.52-6.55-19.12-11.65-22.78-15.32-7.86-7.59-11.78-17.22-11.78-28.87s4.35-22.03,13.06-30.34c8.71-8.31,19.02-12.47,30.93-12.47s22.71,4.19,31.23,12.57c8.51,8.38,12.77,18.66,12.77,30.83Z"/>
    <path class="st0" d="M395.83,572.54h8.45c2.62,0,3.99,1.31,4.12,3.93,0,2.62-1.37,3.93-4.12,3.93h-8.45v77.77c0,2.62,1.37,3.93,4.12,3.93,1.31,0,2.29-.33,2.95-.98,1.83-1.83,3.66-1.9,5.5-.2,2.09,2.23,1.96,4.29-.39,6.19-2.36,1.9-5.04,2.85-8.05,2.85-3.27,0-6.09-1.05-8.44-3.14-2.36-2.09-3.53-4.97-3.53-8.64v-77.77h-6.09c-2.75,0-4.12-1.05-4.12-3.14,0-.65.13-1.37.39-2.16l10.02-30.05c.79-2.09,2.09-3.14,3.93-3.14,2.49,0,3.73,1.51,3.73,4.52v26.12Z"/>
    <path class="st0" d="M510.72,615.94c.13,7.33-1.44,14.67-4.71,22-.66,1.57-1.84,2.36-3.54,2.36h-62.45c-2.62,0-3.93-1.37-3.93-4.12,0-2.49,1.31-3.73,3.93-3.73h59.9c2.09-6.15,3.07-11.59,2.95-16.3-.13-10.47-3.47-19.38-10.02-26.71-6.94-7.86-16.04-11.65-27.3-11.39-11.26.26-21.01,4.19-29.26,11.78-8.77,8.38-13.16,18.85-13.16,31.42,0,11.92,4.42,22.09,13.26,30.54,8.84,8.44,19.67,12.67,32.5,12.67,13.88,0,25.6-4.78,35.15-14.34.79-.79,1.7-1.18,2.75-1.18,1.31,0,2.42.59,3.34,1.77,1.05,1.7.85,3.34-.59,4.91-10.61,11.13-24.16,16.69-40.65,16.69-15.19,0-27.92-4.97-38.2-14.93-10.28-9.95-15.42-22-15.42-36.14,0-14.93,5.24-27.3,15.71-37.12,9.82-9.16,21.34-13.81,34.57-13.94,13.62-.26,24.61,4.32,32.99,13.75,7.98,8.64,12.04,19.31,12.18,32.01Z"/>
    <path class="st0" d="M613.04,615.94c.13,7.33-1.44,14.67-4.71,22-.66,1.57-1.84,2.36-3.54,2.36h-62.45c-2.62,0-3.93-1.37-3.93-4.12,0-2.49,1.31-3.73,3.93-3.73h59.9c2.09-6.15,3.07-11.59,2.95-16.3-.13-10.47-3.47-19.38-10.02-26.71-6.94-7.86-16.04-11.65-27.3-11.39-11.26.26-21.01,4.19-29.26,11.78-8.77,8.38-13.16,18.85-13.16,31.42,0,11.92,4.42,22.09,13.26,30.54,8.84,8.44,19.67,12.67,32.5,12.67,13.88,0,25.6-4.78,35.15-14.34.79-.79,1.7-1.18,2.75-1.18,1.31,0,2.42.59,3.34,1.77,1.05,1.7.85,3.34-.59,4.91-10.61,11.13-24.16,16.69-40.65,16.69-15.19,0-27.92-4.97-38.2-14.93-10.28-9.95-15.42-22-15.42-36.14,0-14.93,5.24-27.3,15.71-37.12,9.82-9.16,21.34-13.81,34.57-13.94,13.62-.26,24.61,4.32,32.99,13.75,7.98,8.64,12.04,19.31,12.18,32.01Z"/>
    <path class="st0" d="M633.86,669.95h-8.64c-2.62,0-3.93-1.31-3.93-3.93v-85.63h-3.53c-2.36,0-3.67-1.18-3.93-3.53-.26-2.88,1.05-4.32,3.93-4.32h7.46c2.62,0,3.93,1.31,3.93,3.93v15.71c8.64-14.66,19.7-22,33.19-22,7.07,0,13.09,2.13,18.07,6.38,4.97,4.26,7.46,9.13,7.46,14.63,0,3.53-1.05,6.87-3.14,10.02-1.31,1.96-3.01,2.49-5.11,1.57-1.57-.79-2.36-1.96-2.36-3.53,0-.65.46-1.8,1.37-3.44.92-1.64,1.38-3.17,1.38-4.62,0-3.66-1.74-6.78-5.21-9.33-3.47-2.55-7.63-3.83-12.47-3.83-7.86,0-14.83,3.44-20.92,10.31-6.09,6.87-10.18,15.68-12.27,26.42v47.33h4.71c2.62,0,3.93,1.31,3.93,3.93.13,2.62-1.18,3.93-3.93,3.93Z"/>
    <path class="st0" d="M704.17,666.02c0,2.62-1.31,3.93-3.93,3.93h-8.05c-2.62,0-3.93-1.31-3.93-3.93-.13-2.62,1.18-3.93,3.93-3.93h4.12v-126.28c0-3.66-1.84-5.5-5.5-5.5s-5.5,1.84-5.5,5.5c0,2.62-1.31,3.93-3.93,3.93-2.62.13-3.93-1.18-3.93-3.93,0-4.19,1.31-7.46,3.93-9.82,2.62-2.36,5.76-3.54,9.43-3.54s6.81,1.18,9.43,3.54c2.62,2.36,3.93,5.63,3.93,9.82v130.21Z"/>
    <path class="st0" d="M800.79,580.39h-5.3l-36.92,104.48c-2.62,7.72-6.48,13.71-11.59,17.97-5.11,4.25-10.61,6.38-16.5,6.38-2.36,0-4.78-.39-7.27-1.18-9.69-3.14-14.53-9.82-14.53-20.03,0-5.11,1.44-9.72,4.32-13.85,2.88-4.12,6.81-6.19,11.78-6.19,1.96,0,3.93.39,5.89,1.18,3.66.91,6.41,3.21,8.25,6.87,1.31,2.36.79,4.19-1.57,5.5-2.1,1.05-3.8.52-5.11-1.57-1.57-2.62-3.86-3.93-6.87-3.93s-5.11,1.37-6.68,4.12c-1.31,2.22-1.96,4.84-1.96,7.86,0,6.41,2.95,10.61,8.84,12.57,1.7.52,3.34.79,4.91.79,9.29,0,16.17-6.42,20.62-19.25l5.7-15.91-31.42-85.82h-9.23c-2.36,0-3.67-1.18-3.93-3.53-.26-2.88,1.05-4.32,3.93-4.32h11.98c1.96,0,3.21.85,3.73,2.55l29.07,79.34,28.08-79.34c.65-1.7,1.9-2.55,3.73-2.55h8.05c2.62,0,3.99,1.25,4.12,3.73.13,2.75-1.25,4.12-4.12,4.12Z"/>
  </g>
</svg>